<?xml version="1.0" encoding="UTF-8"?>
<svg version="1.1" xmlns="http://www.w3.org/2000/svg" width="370" height="110">
<path d="M0 0 C139.59 0 279.18 0 423 0 C423 102.96 423 205.92 423 312 C283.41 312 143.82 312 0 312 C0 209.04 0 106.08 0 0 Z " fill="#FEFEFE" transform="translate(0,0)"/>
<path d="M0 0 C8.58 0 17.16 0 26 0 C26 10.56 26 21.12 26 32 C36.48623165 31.96040089 36.48623165 31.96040089 46.97241211 31.90991211 C48.26928955 31.90741455 49.56616699 31.90491699 50.90234375 31.90234375 C51.93107605 31.8946698 51.93107605 31.8946698 52.98059082 31.88684082 C54.65415231 31.88652946 56.3275958 31.93777163 58 32 C59 33 59 33 59.11352539 35.40844727 C59.10567017 36.97163696 59.10567017 36.97163696 59.09765625 38.56640625 C59.09515869 39.57904541 59.09266113 40.59168457 59.09008789 41.63500977 C59.08098389 42.93108154 59.07187988 44.22715332 59.0625 45.5625 C59.041875 49.666875 59.02125 53.77125 59 58 C43.16 58.495 43.16 58.495 27 59 C26.67 69.56 26.34 80.12 26 91 C17.42 91 8.84 91 0 91 C0 80.44 0 69.88 0 59 C-10.56 59 -21.12 59 -32 59 C-32 50.09 -32 41.18 -32 32 C-21.44 32 -10.88 32 0 32 C0 21.44 0 10.88 0 0 Z " fill="#FF914E" transform="translate(34,9)"/>
<path d="M0 0 C6.08421633 3.41489298 10.24945318 8.58174241 12.58203125 15.13671875 C14.83545865 24.54550977 14.98737662 35.65336082 10.58203125 44.44921875 C6.02119694 51.37249961 0.72853663 55.64156223 -7.41796875 57.44921875 C-15.41421116 58.42051373 -22.8124119 57.47315199 -29.61328125 53.0078125 C-35.7309485 48.14302544 -38.92998454 42.08382932 -40.41796875 34.44921875 C-41.09900474 24.05032301 -40.98197113 14.45964636 -34.23046875 6.07421875 C-25.05585175 -3.56789466 -12.03311986 -4.90620767 0 0 Z " fill="#054EAE" transform="translate(138.41796875,29.55078125)"/>
<path d="M0 0 C3.3 0 6.6 0 10 0 C10 1.98 10 3.96 10 6 C10.66 6 11.32 6 12 6 C12.268125 5.38125 12.53625 4.7625 12.8125 4.125 C14 2 14 2 17 0 C19.7421875 -0.30078125 19.7421875 -0.30078125 22.875 -0.3125 C24.41800781 -0.33763672 24.41800781 -0.33763672 25.9921875 -0.36328125 C30.73052417 0.20901136 33.84978682 2.51818544 37 6 C37.804375 5.195625 38.60875 4.39125 39.4375 3.5625 C43.13418896 -0.13418896 43.85980949 -0.21848028 49.1875 -0.375 C56.49650452 -0.34290777 56.49650452 -0.34290777 59.75 2.375 C63.41858524 6.65501611 63.13272337 9.86039915 63.09765625 15.2890625 C63.0962413 16.10748627 63.09482635 16.92591003 63.09336853 17.76913452 C63.0877629 20.38779325 63.07520948 23.00636704 63.0625 25.625 C63.05748572 27.39843627 63.05292269 29.17187387 63.04882812 30.9453125 C63.03779164 35.29690782 63.02052325 39.6484395 63 44 C59.37 44 55.74 44 52 44 C51.97494385 43.00556885 51.9498877 42.0111377 51.92407227 40.98657227 C51.83015118 37.30951253 51.72989381 33.6326485 51.62768555 29.95581055 C51.58427854 28.362107 51.54260781 26.7683552 51.50268555 25.17456055 C51.44512193 22.88836092 51.38138851 20.60240551 51.31640625 18.31640625 C51.29969376 17.59973282 51.28298126 16.88305939 51.26576233 16.14466858 C51.44981346 12.78472618 51.44981346 12.78472618 50 10 C45.93351976 9.49624166 45.93351976 9.49624166 42 10 C38.18241885 13.8398411 37.48484987 16.48476979 37.390625 21.83203125 C37.35839844 23.12431641 37.32617188 24.41660156 37.29296875 25.74804688 C37.2782265 27.10286009 37.26390888 28.45767798 37.25 29.8125 C37.22182241 31.18688639 37.19189246 32.56123805 37.16015625 33.93554688 C37.08952726 37.2904241 37.03679226 40.64460896 37 44 C33.37 44 29.74 44 26 44 C25.67 32.78 25.34 21.56 25 10 C16.77972222 9.20948363 16.77972222 9.20948363 13.47558594 11.56542969 C11.50516505 14.81642855 11.4549151 17.16000888 11.390625 20.953125 C11.37408875 21.61334656 11.35755249 22.27356812 11.34051514 22.95379639 C11.29211549 25.05262626 11.27068481 27.15073222 11.25 29.25 C11.22183317 30.6771196 11.19190472 32.10420559 11.16015625 33.53125 C11.08636237 37.02067609 11.03673721 40.50996472 11 44 C7.37 44 3.74 44 0 44 C0 29.48 0 14.96 0 0 Z " fill="#054EAE" transform="translate(163,42)"/>
<path d="M0 0 C0.7425 -0.03287109 1.485 -0.06574219 2.25 -0.09960938 C6.25314666 -0.13850921 8.84764494 0.18709378 12.0390625 2.71484375 C16.09691061 6.98723066 16.8779515 9.63644727 16.8203125 15.515625 C16.81386719 16.67578125 16.80742187 17.8359375 16.80078125 19.03125 C16.78402344 20.2378125 16.76726562 21.444375 16.75 22.6875 C16.74097656 23.90953125 16.73195313 25.1315625 16.72265625 26.390625 C16.69909513 29.40644782 16.66619706 32.42187492 16.625 35.4375 C18.275 35.4375 19.925 35.4375 21.625 35.4375 C21.72265625 41.58984375 21.72265625 41.58984375 21.625 43.4375 C20.05522426 45.00727574 18.48303613 44.64487081 16.3125 44.6875 C13.27382929 44.65362947 11.80865427 44.53156682 9.0625 43.125 C7.625 41.4375 7.625 41.4375 7.625 38.4375 C6.965 38.4375 6.305 38.4375 5.625 38.4375 C5.398125 39.035625 5.17125 39.63375 4.9375 40.25 C3.16456902 43.20488497 1.80925322 44.08249863 -1.375 45.4375 C-6.10473338 46.16179496 -9.44166125 45.90416938 -13.75 43.75 C-17.84338519 40.14392257 -19.52775985 37.4461876 -19.875 32 C-19.73273525 28.43745344 -19.2827525 27.28183235 -17.375 24.0625 C-13.9163946 21.03622027 -10.71784217 19.65756268 -6.375 18.4375 C-5.39789063 18.1590625 -4.42078125 17.880625 -3.4140625 17.59375 C-0.73994407 16.85132123 1.93855777 16.13380212 4.625 15.4375 C4.625 13.7875 4.625 12.1375 4.625 10.4375 C1.45412985 8.85206493 -0.85490484 9.09684563 -4.375 9.4375 C-6.58143759 10.62962287 -8.56107413 11.95282271 -10.578125 13.44140625 C-11.46757812 13.93447266 -11.46757812 13.93447266 -12.375 14.4375 C-15.375 13.4375 -15.375 13.4375 -17.0625 10.375 C-17.495625 9.405625 -17.92875 8.43625 -18.375 7.4375 C-12.15980363 2.06983041 -8.44585608 0.06530301 0 0 Z " fill="#074FAF" transform="translate(295.375,41.5625)"/>
<path d="M0 0 C4.13777878 1.91563832 7.17518841 4.43571907 9.30859375 8.55078125 C11.64614774 16.83126911 11.1902862 27.48638336 7 35 C2.22224465 39.54469411 -1.0324717 40.35541519 -7.45703125 40.28125 C-11.19180418 39.86818756 -13.23941828 38.49125668 -16 36 C-21.04863289 29.03636843 -20.51112776 21.30814942 -20 13 C-19.14641285 8.60436226 -17.73852944 5.70250362 -14.4375 2.5625 C-9.63995743 -0.5128478 -5.6291661 -0.60621789 0 0 Z " fill="#FAFBFD" transform="translate(130,37)"/>
<path d="M0 0 C0.69480469 -0.02449219 1.38960937 -0.04898438 2.10546875 -0.07421875 C7.23219112 -0.10318328 10.30100471 0.95857788 14.125 4.375 C14.125 8.375 14.125 8.375 12.125 10.625 C11.465 11.2025 10.805 11.78 10.125 12.375 C5.375 10.5 5.375 10.5 3.125 9.375 C-1.52775976 9.0697378 -1.52775976 9.0697378 -5.875 10.375 C-5.545 12.025 -5.215 13.675 -4.875 15.375 C-3.92238281 15.62894531 -2.96976563 15.88289063 -1.98828125 16.14453125 C-0.73402344 16.48871094 0.52023438 16.83289063 1.8125 17.1875 C3.67455078 17.69216797 3.67455078 17.69216797 5.57421875 18.20703125 C9.90723118 19.63230157 13.05809318 21.05056395 15.9375 24.625 C17.48209798 28.20196374 17.59241551 30.50212866 17.125 34.375 C14.99321965 39.61562669 12.77047029 42.46778222 7.5234375 44.7109375 C-0.63035785 46.96850299 -7.53460284 45.72821793 -14.9140625 41.859375 C-16.875 40.375 -16.875 40.375 -18.875 36.375 C-16.565 34.395 -14.255 32.415 -11.875 30.375 C-11.09125 31.014375 -10.3075 31.65375 -9.5 32.3125 C-6.31202606 34.81733667 -4.83188983 35.51454739 -0.875 35.5 C-0.17375 35.50257812 0.5275 35.50515625 1.25 35.5078125 C3.21653775 35.48877236 3.21653775 35.48877236 5.125 34.375 C4.63 31.9 4.63 31.9 4.125 29.375 C2.58779297 28.92060547 2.58779297 28.92060547 1.01953125 28.45703125 C-0.34140028 28.03467319 -1.70206353 27.61144997 -3.0625 27.1875 C-3.73603516 26.99091797 -4.40957031 26.79433594 -5.10351562 26.59179688 C-9.82078023 25.09607883 -12.59991254 23.24219366 -15.875 19.375 C-17.61951903 15.88596194 -17.45078672 12.18158999 -16.875 8.375 C-13.08838432 1.1804302 -7.55256897 0.01385792 0 0 Z " fill="#084FAF" transform="translate(252.875,41.625)"/>
<path d="M0 0 C0.66 0.33 1.32 0.66 2 1 C1.67 4.3 1.34 7.6 1 11 C-0.381875 10.896875 -1.76375 10.79375 -3.1875 10.6875 C-6.76374373 10.42061614 -7.76067768 10.80581931 -10.609375 13.1171875 C-13.47421619 16.57184894 -13.64635785 18.1841231 -13.70703125 22.61328125 C-13.73603516 23.86044922 -13.76503906 25.10761719 -13.79492188 26.39257812 C-13.80072266 27.68615234 -13.80652344 28.97972656 -13.8125 30.3125 C-13.83763672 31.62541016 -13.86277344 32.93832031 -13.88867188 34.29101562 C-13.94751968 37.52764489 -13.98381937 40.76292218 -14 44 C-17.63 44 -21.26 44 -25 44 C-25 29.81 -25 15.62 -25 1 C-21.7 1 -18.4 1 -15 1 C-15 2.98 -15 4.96 -15 7 C-14.34 7 -13.68 7 -13 7 C-12.731875 6.21625 -12.46375 5.4325 -12.1875 4.625 C-9.59263565 -1.11101593 -5.44888644 -0.25947078 0 0 Z " fill="#044DAE" transform="translate(350,42)"/>
<path d="M0 0 C0.61189802 7.95467422 0.61189802 7.95467422 -1.5 11.5625 C-5.22017755 13.70160209 -7.73688991 13.41255904 -12 13 C-14 11 -14 11 -14.3125 8.0625 C-14 5 -14 5 -13 3.25 C-9.0902108 0.80638175 -4.56468942 0 0 0 Z " fill="#F8FAFC" transform="translate(301,65)"/>
</svg>
