<svg version="1.1" id="Layer_1" xmlns="http://www.w3.org/2000/svg" xmlns:xlink="http://www.w3.org/1999/xlink" x="0px" y="0px"
	 width="100%" viewBox="0 0 500 500" enable-background="new 0 0 500 500" xml:space="preserve">
<path fill="#FFFFFF" opacity="1.000000" stroke="none" 
	d="
M455.000000,501.000000 
	C303.333374,501.000000 152.166733,501.000000 1.000081,501.000000 
	C1.000054,334.333405 1.000054,167.666824 1.000027,1.000171 
	C167.666550,1.000114 334.333099,1.000114 500.999756,1.000057 
	C500.999817,167.666519 500.999817,334.333038 500.999908,500.999756 
	C485.833344,501.000000 470.666656,501.000000 455.000000,501.000000 
M138.184479,282.395264 
	C138.184479,273.962250 138.184479,265.529266 138.184479,256.661621 
	C148.098160,256.661621 157.242432,256.557922 166.382156,256.717102 
	C169.641266,256.773834 170.842468,255.652161 170.730026,252.382324 
	C170.541168,246.889526 170.359268,241.361282 170.773407,235.893311 
	C171.151688,230.898758 169.200439,229.706757 164.527451,229.897964 
	C155.942444,230.249298 147.332748,229.998154 137.975739,229.998154 
	C137.975739,218.947357 137.975739,208.582443 137.975739,198.352539 
	C128.940872,198.352539 120.686218,198.352539 111.939484,198.352539 
	C111.939484,208.949219 111.939484,219.202347 111.939484,230.088364 
	C101.065857,230.088364 90.683571,230.088364 80.140114,230.088364 
	C80.140114,239.160782 80.140114,247.587036 80.140114,256.728760 
	C90.771156,256.728760 101.157402,256.728760 112.184814,256.728760 
	C112.184814,267.812103 112.184814,278.193085 112.184814,288.562134 
	C121.111656,288.562134 129.361938,288.562134 138.184509,288.562134 
	C138.184509,286.610809 138.184509,284.986053 138.184479,282.395264 
M240.882401,273.818573 
	C244.384872,274.351929 247.887329,274.885315 251.872543,275.492218 
	C251.872543,273.296478 251.866928,272.156921 251.873444,271.017426 
	C251.916214,263.522125 251.721176,256.015167 252.082748,248.535202 
	C252.368256,242.628479 256.127289,239.497345 261.507904,239.924850 
	C267.277924,240.383286 267.041595,244.663147 267.048737,248.744858 
	C267.063843,257.358337 267.053314,265.971893 267.053314,274.742065 
	C270.935211,274.742065 274.329407,274.742065 278.066223,274.742065 
	C278.066223,271.849762 278.043121,269.214722 278.070892,266.580231 
	C278.134094,260.586670 277.852264,254.559250 278.401825,248.609436 
	C278.980530,242.343979 282.437683,239.538086 287.793518,239.924301 
	C292.210052,240.242783 293.320526,242.052475 293.345581,249.208038 
	C293.375214,257.665222 293.352539,266.122620 293.352539,274.744141 
	C297.257263,274.744141 300.653534,274.744141 304.060638,274.744141 
	C304.060638,263.510590 304.374542,252.531174 303.942688,241.581177 
	C303.684509,235.034958 299.511505,231.502457 293.020599,230.691010 
	C286.299133,229.850754 281.042206,232.165894 277.461060,238.064743 
	C270.102905,228.333786 263.345642,227.902374 251.722687,236.318344 
	C251.438370,234.627914 251.172058,233.044449 250.890900,231.372833 
	C247.574585,231.372833 244.444962,231.372833 240.839630,231.372833 
	C240.839630,245.327713 240.839630,259.123566 240.882401,273.818573 
M228.136749,233.486465 
	C223.587051,221.446732 214.322449,215.475647 201.430817,216.274338 
	C188.722321,217.061691 179.534988,223.833969 177.414291,235.609955 
	C176.204803,242.326050 176.157257,249.613785 177.363831,256.324585 
	C179.636734,268.966095 190.071259,276.142944 203.720169,275.885406 
	C217.077682,275.633301 226.972839,268.178619 228.815826,255.459167 
	C229.815735,248.558395 228.590271,241.335159 228.136749,233.486465 
M369.498749,249.099503 
	C366.640228,249.947632 363.659363,250.516083 360.948730,251.702225 
	C355.333527,254.159378 353.362610,258.085724 353.968689,264.632446 
	C354.475189,270.103455 357.576294,273.789612 362.978546,275.236328 
	C369.855316,277.077942 375.578094,275.272003 379.810059,269.331726 
	C384.211395,275.640015 388.780487,276.847107 395.686646,273.607971 
	C395.391296,271.306427 395.082886,268.902924 394.731689,266.166016 
	C390.236755,267.178436 389.778809,264.706329 389.867676,261.362335 
	C390.018066,255.707657 390.003662,250.042664 389.851501,244.387589 
	C389.709320,239.103271 387.950928,234.566055 382.800598,232.135284 
	C374.210876,228.081207 361.115021,231.153702 355.028473,238.657486 
	C356.464264,240.817139 357.918488,243.004547 359.522552,245.417282 
	C361.148315,244.201935 362.317139,242.815948 363.783203,242.334045 
	C367.325806,241.169571 370.977051,239.993835 374.648132,239.739044 
	C376.016022,239.644089 378.354858,241.896744 378.754089,243.460892 
	C379.033752,244.556870 377.034943,246.700851 375.578735,247.641571 
	C374.134369,248.574677 372.095245,248.587128 369.498749,249.099503 
M318.492157,233.946594 
	C310.473328,241.949066 312.740723,252.164886 323.407593,255.792450 
	C326.072632,256.698730 329.064270,256.837830 331.530121,258.077026 
	C333.600586,259.117554 336.500885,261.166382 336.601532,262.909210 
	C336.806519,266.460083 333.170288,267.481903 330.426178,266.806335 
	C326.129974,265.748657 322.073181,263.718658 317.348663,261.880127 
	C316.020447,263.312561 314.023376,265.466339 312.085693,267.556091 
	C317.497833,275.216125 330.066406,278.149384 339.339569,274.188049 
	C344.731384,271.884766 347.799133,267.341614 347.724548,261.770508 
	C347.647461,256.010040 344.747559,252.043503 338.693909,250.017059 
	C335.082428,248.808121 331.209656,248.330429 327.681610,246.945175 
	C326.183167,246.356827 324.230042,244.171036 324.368347,242.919479 
	C324.516144,241.581696 326.972168,239.391739 328.270538,239.493256 
	C332.371857,239.814011 336.402893,241.033035 341.402863,242.106781 
	C342.377197,241.052521 344.267975,239.006622 346.130554,236.991257 
	C339.971130,229.726974 328.817780,228.385880 318.492157,233.946594 
M411.885101,231.234833 
	C408.963959,231.234833 406.042847,231.234833 403.032623,231.234833 
	C403.032623,246.146103 403.032623,260.422455 403.032623,274.722626 
	C406.655487,274.722626 410.076965,274.722626 413.973145,274.722626 
	C413.973145,266.811829 413.741791,259.175171 414.035492,251.558746 
	C414.356018,243.246964 418.755432,240.048920 426.914581,241.611786 
	C427.344482,241.694153 427.829468,241.489182 428.476624,241.388855 
	C428.835205,239.747879 429.037964,238.092194 429.564880,236.547073 
	C431.057159,232.171082 428.993286,230.203400 425.062103,231.129837 
	C421.082672,232.067673 417.384888,234.200378 413.721771,235.743134 
	C413.514435,234.869247 413.104340,233.140656 411.885101,231.234833 
z"/>
<path fill="#FF924E" opacity="1.000000" stroke="none" 
	d="
M138.184494,282.878265 
	C138.184509,284.986053 138.184509,286.610809 138.184509,288.562134 
	C129.361938,288.562134 121.111656,288.562134 112.184814,288.562134 
	C112.184814,278.193085 112.184814,267.812103 112.184814,256.728760 
	C101.157402,256.728760 90.771156,256.728760 80.140114,256.728760 
	C80.140114,247.587036 80.140114,239.160782 80.140114,230.088364 
	C90.683571,230.088364 101.065857,230.088364 111.939484,230.088364 
	C111.939484,219.202347 111.939484,208.949219 111.939484,198.352539 
	C120.686218,198.352539 128.940872,198.352539 137.975739,198.352539 
	C137.975739,208.582443 137.975739,218.947357 137.975739,229.998154 
	C147.332748,229.998154 155.942444,230.249298 164.527451,229.897964 
	C169.200439,229.706757 171.151688,230.898758 170.773407,235.893311 
	C170.359268,241.361282 170.541168,246.889526 170.730026,252.382324 
	C170.842468,255.652161 169.641266,256.773834 166.382156,256.717102 
	C157.242432,256.557922 148.098160,256.661621 138.184479,256.661621 
	C138.184479,265.529266 138.184479,273.962250 138.184494,282.878265 
z"/>
<path fill="#064EAF" opacity="1.000000" stroke="none" 
	d="
M240.861023,273.368988 
	C240.839630,259.123566 240.839630,245.327713 240.839630,231.372833 
	C244.444962,231.372833 247.574585,231.372833 250.890900,231.372833 
	C251.172058,233.044449 251.438370,234.627914 251.722687,236.318344 
	C263.345642,227.902374 270.102905,228.333786 277.461060,238.064743 
	C281.042206,232.165894 286.299133,229.850754 293.020599,230.691010 
	C299.511505,231.502457 303.684509,235.034958 303.942688,241.581177 
	C304.374542,252.531174 304.060638,263.510590 304.060638,274.744141 
	C300.653534,274.744141 297.257263,274.744141 293.352539,274.744141 
	C293.352539,266.122620 293.375214,257.665222 293.345581,249.208038 
	C293.320526,242.052475 292.210052,240.242783 287.793518,239.924301 
	C282.437683,239.538086 278.980530,242.343979 278.401825,248.609436 
	C277.852264,254.559250 278.134094,260.586670 278.070892,266.580231 
	C278.043121,269.214722 278.066223,271.849762 278.066223,274.742065 
	C274.329407,274.742065 270.935211,274.742065 267.053314,274.742065 
	C267.053314,265.971893 267.063843,257.358337 267.048737,248.744858 
	C267.041595,244.663147 267.277924,240.383286 261.507904,239.924850 
	C256.127289,239.497345 252.368256,242.628479 252.082748,248.535202 
	C251.721176,256.015167 251.916214,263.522125 251.873444,271.017426 
	C251.866928,272.156921 251.872543,273.296478 251.872543,275.492218 
	C247.887329,274.885315 244.384872,274.351929 240.861023,273.368988 
z"/>
<path fill="#054EAF" opacity="1.000000" stroke="none" 
	d="
M228.252686,233.871918 
	C228.590271,241.335159 229.815735,248.558395 228.815826,255.459167 
	C226.972839,268.178619 217.077682,275.633301 203.720169,275.885406 
	C190.071259,276.142944 179.636734,268.966095 177.363831,256.324585 
	C176.157257,249.613785 176.204803,242.326050 177.414291,235.609955 
	C179.534988,223.833969 188.722321,217.061691 201.430817,216.274338 
	C214.322449,215.475647 223.587051,221.446732 228.252686,233.871918 
M204.232422,226.177765 
	C194.410950,226.436325 189.491165,230.254166 188.398514,239.794281 
	C187.804321,244.982361 188.154617,250.468155 189.169037,255.604370 
	C190.523270,262.461060 195.896164,265.951752 203.140579,265.914764 
	C210.371445,265.877838 215.606461,262.360321 216.885590,255.364868 
	C217.855835,250.058716 218.000046,244.439117 217.471375,239.061279 
	C216.765915,231.884979 212.612457,227.203171 204.232422,226.177765 
z"/>
<path fill="#074FAF" opacity="1.000000" stroke="none" 
	d="
M369.907837,249.051422 
	C372.095245,248.587128 374.134369,248.574677 375.578735,247.641571 
	C377.034943,246.700851 379.033752,244.556870 378.754089,243.460892 
	C378.354858,241.896744 376.016022,239.644089 374.648132,239.739044 
	C370.977051,239.993835 367.325806,241.169571 363.783203,242.334045 
	C362.317139,242.815948 361.148315,244.201935 359.522552,245.417282 
	C357.918488,243.004547 356.464264,240.817139 355.028473,238.657486 
	C361.115021,231.153702 374.210876,228.081207 382.800598,232.135284 
	C387.950928,234.566055 389.709320,239.103271 389.851501,244.387589 
	C390.003662,250.042664 390.018066,255.707657 389.867676,261.362335 
	C389.778809,264.706329 390.236755,267.178436 394.731689,266.166016 
	C395.082886,268.902924 395.391296,271.306427 395.686646,273.607971 
	C388.780487,276.847107 384.211395,275.640015 379.810059,269.331726 
	C375.578094,275.272003 369.855316,277.077942 362.978546,275.236328 
	C357.576294,273.789612 354.475189,270.103455 353.968689,264.632446 
	C353.362610,258.085724 355.333527,254.159378 360.948730,251.702225 
	C363.659363,250.516083 366.640228,249.947632 369.907837,249.051422 
M378.864044,261.744659 
	C378.978607,259.186798 379.093201,256.628906 379.217133,253.861908 
	C375.260925,254.864929 371.879364,255.579193 368.591492,256.596313 
	C365.342346,257.601440 363.958313,260.373108 365.142120,263.218994 
	C365.913788,265.074097 368.338287,267.034851 370.320618,267.422302 
	C374.047150,268.150574 376.999237,266.159027 378.864044,261.744659 
z"/>
<path fill="#074FAF" opacity="1.000000" stroke="none" 
	d="
M318.787903,233.727020 
	C328.817780,228.385880 339.971130,229.726974 346.130554,236.991257 
	C344.267975,239.006622 342.377197,241.052521 341.402863,242.106781 
	C336.402893,241.033035 332.371857,239.814011 328.270538,239.493256 
	C326.972168,239.391739 324.516144,241.581696 324.368347,242.919479 
	C324.230042,244.171036 326.183167,246.356827 327.681610,246.945175 
	C331.209656,248.330429 335.082428,248.808121 338.693909,250.017059 
	C344.747559,252.043503 347.647461,256.010040 347.724548,261.770508 
	C347.799133,267.341614 344.731384,271.884766 339.339569,274.188049 
	C330.066406,278.149384 317.497833,275.216125 312.085693,267.556091 
	C314.023376,265.466339 316.020447,263.312561 317.348663,261.880127 
	C322.073181,263.718658 326.129974,265.748657 330.426178,266.806335 
	C333.170288,267.481903 336.806519,266.460083 336.601532,262.909210 
	C336.500885,261.166382 333.600586,259.117554 331.530121,258.077026 
	C329.064270,256.837830 326.072632,256.698730 323.407593,255.792450 
	C312.740723,252.164886 310.473328,241.949066 318.787903,233.727020 
z"/>
<path fill="#064EAF" opacity="1.000000" stroke="none" 
	d="
M412.289673,231.323456 
	C413.104340,233.140656 413.514435,234.869247 413.721771,235.743134 
	C417.384888,234.200378 421.082672,232.067673 425.062103,231.129837 
	C428.993286,230.203400 431.057159,232.171082 429.564880,236.547073 
	C429.037964,238.092194 428.835205,239.747879 428.476624,241.388855 
	C427.829468,241.489182 427.344482,241.694153 426.914581,241.611786 
	C418.755432,240.048920 414.356018,243.246964 414.035492,251.558746 
	C413.741791,259.175171 413.973145,266.811829 413.973145,274.722626 
	C410.076965,274.722626 406.655487,274.722626 403.032623,274.722626 
	C403.032623,260.422455 403.032623,246.146103 403.032623,231.234833 
	C406.042847,231.234833 408.963959,231.234833 412.289673,231.323456 
z"/>
<path fill="#FBFCFE" opacity="1.000000" stroke="none" 
	d="
M204.641373,226.213989 
	C212.612457,227.203171 216.765915,231.884979 217.471375,239.061279 
	C218.000046,244.439117 217.855835,250.058716 216.885590,255.364868 
	C215.606461,262.360321 210.371445,265.877838 203.140579,265.914764 
	C195.896164,265.951752 190.523270,262.461060 189.169037,255.604370 
	C188.154617,250.468155 187.804321,244.982361 188.398514,239.794281 
	C189.491165,230.254166 194.410950,226.436325 204.641373,226.213989 
z"/>
<path fill="#F8FAFD" opacity="1.000000" stroke="none" 
	d="
M378.718872,262.135376 
	C376.999237,266.159027 374.047150,268.150574 370.320618,267.422302 
	C368.338287,267.034851 365.913788,265.074097 365.142120,263.218994 
	C363.958313,260.373108 365.342346,257.601440 368.591492,256.596313 
	C371.879364,255.579193 375.260925,254.864929 379.217133,253.861908 
	C379.093201,256.628906 378.978607,259.186798 378.718872,262.135376 
z"/>
</svg>